<?xml version="1.0" encoding="UTF-8"?>
<!DOCTYPE svg PUBLIC "-//W3C//DTD SVG 1.1//EN" "http://www.w3.org/Graphics/SVG/1.1/DTD/svg11.dtd">
<svg xmlns="http://www.w3.org/2000/svg" version="1.1" width="1916px" height="1083px" style="shape-rendering:geometricPrecision; text-rendering:geometricPrecision; image-rendering:optimizeQuality; fill-rule:evenodd; clip-rule:evenodd" xmlns:xlink="http://www.w3.org/1999/xlink">
<g><path style="opacity:1" fill="#353a40" d="M -0.5,-0.5 C 638.167,-0.5 1276.83,-0.5 1915.5,-0.5C 1915.5,359.5 1915.5,719.5 1915.5,1079.5C 1276.83,1079.5 638.167,1079.5 -0.5,1079.5C -0.5,719.5 -0.5,359.5 -0.5,-0.5 Z"/></g>
<g><path style="opacity:1" fill="#3c3b47" d="M 1136.5,244.5 C 1253.44,242.04 1343.6,289.373 1407,386.5C 1456.35,473.066 1462.69,562.733 1426,655.5C 1381.16,752.701 1305.99,811.201 1200.5,831C 1098.31,844.117 1011.15,814.284 939,741.5C 869.556,662.734 845.889,571.734 868,468.5C 891.959,379.369 945.126,314.202 1027.5,273C 1062.26,257.017 1098.59,247.517 1136.5,244.5 Z"/></g>
<g><path style="opacity:1" fill="#443d4e" d="M 1136.5,278.5 C 1239.95,275.636 1320.12,316.969 1377,402.5C 1417.39,471.297 1426.05,543.963 1403,620.5C 1372.43,705.376 1314.26,761.876 1228.5,790C 1137.59,813.848 1055.92,796.181 983.5,737C 909.487,668.964 881.32,585.131 899,485.5C 917.421,407.112 961.587,348.279 1031.5,309C 1064.58,291.818 1099.58,281.651 1136.5,278.5 Z"/></g>
<g><path style="opacity:1" fill="#4f4459" d="M 1286.5,348.5 C 1202.83,348.5 1119.17,348.5 1035.5,348.5C 1039.65,347.675 1043.98,347.175 1048.5,347C 1117.47,311.669 1186.47,311.669 1255.5,347C 1266.01,347.17 1276.34,347.67 1286.5,348.5 Z"/></g>
<g><path style="opacity:1" fill="#fdfdfd" d="M 1035.5,348.5 C 1119.17,348.5 1202.83,348.5 1286.5,348.5C 1287.12,348.611 1287.62,348.944 1288,349.5C 1288.5,356.158 1288.67,362.825 1288.5,369.5C 1288.5,431.5 1288.5,493.5 1288.5,555.5C 1295.42,555.188 1302.26,555.521 1309,556.5C 1309.67,578.5 1309.67,600.5 1309,622.5C 1308.5,623 1308,623.5 1307.5,624C 1301.18,624.5 1294.84,624.666 1288.5,624.5C 1288.67,649.502 1288.5,674.502 1288,699.5C 1287.5,700 1287,700.5 1286.5,701C 1202.5,701.833 1118.5,701.667 1034.5,700.5C 1033.51,658.543 1033.17,616.543 1033.5,574.5C 1003.16,574.667 972.832,574.5 942.5,574C 942,573.5 941.5,573 941,572.5C 940.5,543.169 940.333,513.835 940.5,484.5C 940.5,483.833 940.5,483.167 940.5,482.5C 941.391,481.89 942.391,481.557 943.5,481.5C 973.5,481.5 1003.5,481.5 1033.5,481.5C 1033.5,438.167 1033.5,394.833 1033.5,351.5C 1033.43,349.973 1034.09,348.973 1035.5,348.5 Z"/></g>
<g><path style="opacity:1" fill="#645a6d" d="M 1033.5,351.5 C 1033.5,394.833 1033.5,438.167 1033.5,481.5C 1003.5,481.5 973.5,481.5 943.5,481.5C 972.995,480.502 1002.66,480.169 1032.5,480.5C 1032.5,439.167 1032.5,397.833 1032.5,356.5C 1032.22,354.585 1032.55,352.919 1033.5,351.5 Z"/></g>
<g><path style="opacity:1" fill="#4b3f55" d="M 1032.5,356.5 C 1032.5,397.833 1032.5,439.167 1032.5,480.5C 1002.66,480.169 972.995,480.502 943.5,481.5C 942.391,481.557 941.391,481.89 940.5,482.5C 955.578,428.97 986.244,386.97 1032.5,356.5 Z"/></g>
<g><path style="opacity:1" fill="#4c4056" d="M 1288.5,369.5 C 1329,401.794 1354.84,443.461 1366,494.5C 1380.15,576.379 1357.32,645.879 1297.5,703C 1231.75,757.574 1158.08,771.574 1076.5,745C 996.896,712.722 949.729,654.222 935,569.5C 933,549.5 933,529.5 935,509.5C 936.026,500.859 937.859,492.525 940.5,484.5C 940.333,513.835 940.5,543.169 941,572.5C 941.5,573 942,573.5 942.5,574C 972.832,574.5 1003.16,574.667 1033.5,574.5C 1033.17,616.543 1033.51,658.543 1034.5,700.5C 1118.5,701.667 1202.5,701.833 1286.5,701C 1287,700.5 1287.5,700 1288,699.5C 1288.5,674.502 1288.67,649.502 1288.5,624.5C 1294.84,624.666 1301.18,624.5 1307.5,624C 1308,623.5 1308.5,623 1309,622.5C 1309.67,600.5 1309.67,578.5 1309,556.5C 1302.26,555.521 1295.42,555.188 1288.5,555.5C 1288.5,493.5 1288.5,431.5 1288.5,369.5 Z"/></g>
<g><path style="opacity:1" fill="#ec347b" d="M 491.5,379.5 C 492.552,379.351 493.552,379.517 494.5,380C 497.118,382.739 499.618,385.573 502,388.5C 502.333,385.833 502.667,383.167 503,380.5C 504.011,379.663 505.178,379.33 506.5,379.5C 506.5,385.167 506.5,390.833 506.5,396.5C 505.127,396.657 503.793,396.49 502.5,396C 500.286,393.075 497.953,390.241 495.5,387.5C 494.516,390.428 494.183,393.428 494.5,396.5C 493.178,396.67 492.011,396.337 491,395.5C 490.219,390.083 490.385,384.75 491.5,379.5 Z"/></g>
<g><path style="opacity:1" fill="#f0f0f1" d="M 533.5,379.5 C 534.822,379.33 535.989,379.663 537,380.5C 537.333,382.5 537.667,384.5 538,386.5C 540.167,384.333 542.333,382.167 544.5,380C 547.134,379.075 548.301,379.909 548,382.5C 546.167,384.333 544.333,386.167 542.5,388C 545.608,390.239 547.608,393.073 548.5,396.5C 544.656,394.848 541.156,392.515 538,389.5C 537.503,391.81 537.337,394.143 537.5,396.5C 535.856,396.714 534.356,396.38 533,395.5C 532.219,390.083 532.385,384.75 533.5,379.5 Z"/></g>
<g><path style="opacity:1" fill="#eaebeb" d="M 593.5,378.5 C 594.833,378.5 596.167,378.5 597.5,378.5C 597.5,379.833 597.5,381.167 597.5,382.5C 596.167,382.5 594.833,382.5 593.5,382.5C 593.5,381.167 593.5,379.833 593.5,378.5 Z"/></g>
<g><path style="opacity:1" fill="#e43579" d="M 510.5,384.5 C 511.822,384.33 512.989,384.663 514,385.5C 514.497,388.146 514.664,390.813 514.5,393.5C 515.5,393.5 516.5,393.5 517.5,393.5C 517.336,390.813 517.503,388.146 518,385.5C 519.049,384.483 520.216,384.316 521.5,385C 522.46,388.73 522.793,392.563 522.5,396.5C 518.6,396.318 514.6,395.984 510.5,395.5C 509.173,391.803 509.173,388.136 510.5,384.5 Z"/></g>
<g><path style="opacity:1" fill="#f3f3f3" d="M 553.5,384.5 C 559.334,383.337 562,385.671 561.5,391.5C 552.167,392.167 552.167,392.833 561.5,393.5C 561.5,394.5 561.5,395.5 561.5,396.5C 550.231,397.921 547.564,393.921 553.5,384.5 Z"/></g>
<g><path style="opacity:1" fill="#f0f0f1" d="M 565.5,384.5 C 567.124,384.36 568.29,385.027 569,386.5C 571.667,383.833 574.333,383.833 577,386.5C 577.667,389.5 577.667,392.5 577,395.5C 575.951,396.517 574.784,396.684 573.5,396C 572.565,393.619 572.232,391.119 572.5,388.5C 571.167,388.5 569.833,388.5 568.5,388.5C 568.664,391.187 568.497,393.854 568,396.5C 567,397.833 566,397.833 565,396.5C 564.238,392.413 564.404,388.413 565.5,384.5 Z"/></g>
<g><path style="opacity:1" fill="#f2f3f3" d="M 603.5,384.5 C 609.334,383.337 612,385.671 611.5,391.5C 602.167,392.167 602.167,392.833 611.5,393.5C 611.5,394.5 611.5,395.5 611.5,396.5C 600.231,397.921 597.564,393.921 603.5,384.5 Z"/></g>
<g><path style="opacity:1" fill="#f4f5f5" d="M 579.5,384.5 C 582.85,384.335 586.183,384.502 589.5,385C 590.517,386.049 590.684,387.216 590,388.5C 588.5,390 587,391.5 585.5,393C 587.941,393.036 589.941,393.869 591.5,395.5C 587.555,396.491 583.555,396.824 579.5,396.5C 580.436,393.041 582.436,390.207 585.5,388C 583.527,387.505 581.527,387.338 579.5,387.5C 579.5,386.5 579.5,385.5 579.5,384.5 Z"/></g>
<g><path style="opacity:1" fill="#f8f8f9" d="M 593.5,384.5 C 594.833,384.5 596.167,384.5 597.5,384.5C 597.5,388.5 597.5,392.5 597.5,396.5C 596.167,396.5 594.833,396.5 593.5,396.5C 593.5,392.5 593.5,388.5 593.5,384.5 Z"/></g>
<g><path style="opacity:1" fill="#42474d" d="M 555.5,387.5 C 556.756,387.461 557.756,387.961 558.5,389C 557.167,389.667 555.833,389.667 554.5,389C 555.056,388.617 555.389,388.117 555.5,387.5 Z"/></g>
<g><path style="opacity:1" fill="#42474d" d="M 605.5,387.5 C 606.756,387.461 607.756,387.961 608.5,389C 607.167,389.667 605.833,389.667 604.5,389C 605.056,388.617 605.389,388.117 605.5,387.5 Z"/></g>
<g><path style="opacity:1" fill="#f3f3f3" d="M 1059.5,386.5 C 1127.17,386.333 1194.83,386.5 1262.5,387C 1263.49,398.753 1263.82,410.586 1263.5,422.5C 1195.5,422.667 1127.5,422.5 1059.5,422C 1058.18,410.167 1058.18,398.333 1059.5,386.5 Z"/></g>
<g><path style="opacity:1" fill="#f1f2f1" d="M 499.5,434.5 C 504.536,434.062 509.369,434.728 514,436.5C 514.986,438.925 514.319,440.591 512,441.5C 504.872,437.466 500.372,439.3 498.5,447C 499.291,456.535 503.957,459.035 512.5,454.5C 514.657,455.966 514.99,457.8 513.5,460C 503.894,464.465 496.727,461.965 492,452.5C 489.856,444.465 492.356,438.465 499.5,434.5 Z"/></g>
<g><path style="opacity:1" fill="#f8f3ec" d="M 612.5,434.5 C 614.467,434.261 616.301,434.594 618,435.5C 618.333,442.5 618.667,449.5 619,456.5C 620.011,457.337 621.178,457.67 622.5,457.5C 622.01,462.737 619.343,463.903 614.5,461C 613.874,460.25 613.374,459.416 613,458.5C 612.5,450.507 612.334,442.507 612.5,434.5 Z"/></g>
<g><path style="opacity:1" fill="#eeece9" d="M 625.5,433.5 C 630.123,432.408 631.956,434.075 631,438.5C 625.42,440.752 623.587,439.085 625.5,433.5 Z"/></g>
<g><path style="opacity:1" fill="#edefee" d="M 563.5,436.5 C 567.068,436.759 568.401,438.759 567.5,442.5C 569.199,442.34 570.866,442.506 572.5,443C 573.833,444.333 573.833,445.667 572.5,447C 570.866,447.494 569.199,447.66 567.5,447.5C 567.211,450.649 567.711,453.649 569,456.5C 570.333,457.833 571.667,457.833 573,456.5C 575.154,460.394 573.821,462.394 569,462.5C 566.594,462.297 564.594,461.297 563,459.5C 561.646,455.637 561.146,451.637 561.5,447.5C 557.839,447.65 556.839,446.15 558.5,443C 559.448,442.517 560.448,442.351 561.5,442.5C 561.259,440.114 561.925,438.114 563.5,436.5 Z"/></g>
<g><path style="opacity:1" fill="#f3f3f3" d="M 1058.5,437.5 C 1126.5,437.333 1194.5,437.5 1262.5,438C 1263.65,449.424 1263.82,460.924 1263,472.5C 1195.24,473.665 1127.4,473.831 1059.5,473C 1058.51,461.247 1058.18,449.414 1058.5,437.5 Z"/></g>
<g><path style="opacity:1" fill="#f4f3f0" d="M 521.5,442.5 C 530.556,440.902 534.889,444.568 534.5,453.5C 530.445,453.176 526.445,453.509 522.5,454.5C 523.337,456.505 524.837,457.505 527,457.5C 529.462,456.841 531.962,456.507 534.5,456.5C 534.762,457.978 534.429,459.311 533.5,460.5C 520.569,464.616 515.069,459.949 517,446.5C 518.397,444.93 519.897,443.596 521.5,442.5 Z"/></g>
<g><path style="opacity:1" fill="#f4f4ef" d="M 538.5,442.5 C 540.722,442.178 542.556,442.845 544,444.5C 553.021,440.441 557.188,443.441 556.5,453.5C 556.333,455.833 556.167,458.167 556,460.5C 554.806,462.525 553.306,462.859 551.5,461.5C 550.672,457.204 550.172,452.871 550,448.5C 548,447.167 546,447.167 544,448.5C 543.828,452.871 543.328,457.204 542.5,461.5C 541.167,462.833 539.833,462.833 538.5,461.5C 537.21,455.112 537.21,448.778 538.5,442.5 Z"/></g>
<g><path style="opacity:1" fill="#f3f5f2" d="M 576.5,442.5 C 578.722,442.178 580.556,442.845 582,444.5C 584.135,442.722 586.635,442.055 589.5,442.5C 589.714,444.144 589.38,445.644 588.5,447C 585.993,447.093 583.826,447.926 582,449.5C 581.827,453.541 581.327,457.541 580.5,461.5C 578.694,462.859 577.194,462.525 576,460.5C 575.212,454.418 575.379,448.418 576.5,442.5 Z"/></g>
<g><path style="opacity:1" fill="#f2f0ed" d="M 594.5,442.5 C 599.284,441.839 603.618,442.839 607.5,445.5C 608.786,450.811 608.786,456.144 607.5,461.5C 605.602,462.734 603.935,462.401 602.5,460.5C 598.571,463.27 594.904,462.937 591.5,459.5C 590.212,456.966 590.212,454.466 591.5,452C 595.099,450.986 598.765,450.153 602.5,449.5C 601.73,447.728 600.397,446.728 598.5,446.5C 596.49,447.362 594.49,447.862 592.5,448C 591.08,445.426 591.747,443.593 594.5,442.5 Z"/></g>
<g><path style="opacity:1" fill="#ebe8e2" d="M 625.5,442.5 C 627.467,442.261 629.301,442.594 631,443.5C 631.807,449.416 631.641,455.25 630.5,461C 628.559,461.743 626.726,461.576 625,460.5C 624.212,454.418 624.379,448.418 625.5,442.5 Z"/></g>
<g><path style="opacity:1" fill="#f4f3f0" d="M 657.5,442.5 C 666.556,440.902 670.889,444.568 670.5,453.5C 666.445,453.176 662.445,453.509 658.5,454.5C 659.337,456.505 660.837,457.505 663,457.5C 665.462,456.841 667.962,456.507 670.5,456.5C 670.762,457.978 670.429,459.311 669.5,460.5C 656.569,464.616 651.069,459.949 653,446.5C 654.397,444.93 655.897,443.596 657.5,442.5 Z"/></g>
<g><path style="opacity:1" fill="#f2f3f1" d="M 689.5,442.5 C 703.213,442.098 706.879,447.931 700.5,460C 688.301,464.652 682.801,460.485 684,447.5C 685.73,445.598 687.563,443.931 689.5,442.5 Z"/></g>
<g><path style="opacity:1" fill="#f3f1ee" d="M 635.5,442.5 C 640.43,442.197 645.263,442.531 650,443.5C 650.667,444.833 650.667,446.167 650,447.5C 646.796,450.369 643.963,453.535 641.5,457C 644.5,457.333 647.5,457.667 650.5,458C 651.833,459 651.833,460 650.5,461C 632.721,464.934 630.054,460.601 642.5,448C 640.167,447.667 637.833,447.333 635.5,447C 634.272,445.51 634.272,444.01 635.5,442.5 Z"/></g>
<g><path style="opacity:1" fill="#40404a" d="M 523.5,446.5 C 526.288,446.077 528.288,447.077 529.5,449.5C 527.257,450.474 524.924,450.808 522.5,450.5C 522.433,449.041 522.766,447.708 523.5,446.5 Z"/></g>
<g><path style="opacity:1" fill="#40404a" d="M 659.5,446.5 C 662.288,446.077 664.288,447.077 665.5,449.5C 663.257,450.474 660.924,450.808 658.5,450.5C 658.433,449.041 658.766,447.708 659.5,446.5 Z"/></g>
<g><path style="opacity:1" fill="#45414b" d="M 690.5,447.5 C 697.815,447.283 699.481,450.449 695.5,457C 691.294,457.835 689.294,456.002 689.5,451.5C 689.623,450.075 689.957,448.742 690.5,447.5 Z"/></g>
<g><path style="opacity:1" fill="#3f3f4c" d="M 597.5,453.5 C 599.288,453.215 600.955,453.548 602.5,454.5C 601.288,456.923 599.288,457.923 596.5,457.5C 596.433,456.041 596.766,454.708 597.5,453.5 Z"/></g>
<g><path style="opacity:1" fill="#edebe6" d="M 608.5,482.5 C 610.467,482.261 612.301,482.594 614,483.5C 614.333,490.5 614.667,497.5 615,504.5C 616.011,505.337 617.178,505.67 618.5,505.5C 617.758,510.537 615.091,511.704 610.5,509C 609.299,508.097 608.465,506.931 608,505.5C 607.202,497.754 607.369,490.087 608.5,482.5 Z"/></g>
<g><path style="opacity:1" fill="#f2efe9" d="M 665.5,482.5 C 667.467,482.261 669.301,482.594 671,483.5C 671.667,491.833 671.667,500.167 671,508.5C 668.67,510.032 666.67,509.698 665,507.5C 659.972,511.897 655.639,511.23 652,505.5C 651.333,501.833 651.333,498.167 652,494.5C 655.006,490.519 658.84,489.519 663.5,491.5C 664.249,488.473 664.916,485.473 665.5,482.5 Z"/></g>
<g><path style="opacity:1" fill="#f1efe9" d="M 557.5,484.5 C 561.446,484.488 563.113,486.488 562.5,490.5C 564.199,490.34 565.866,490.506 567.5,491C 568.833,492.333 568.833,493.667 567.5,495C 565.866,495.494 564.199,495.66 562.5,495.5C 562.5,498.5 562.5,501.5 562.5,504.5C 564.5,504.5 566.5,504.5 568.5,504.5C 568.5,506.167 568.5,507.833 568.5,509.5C 563.92,511.397 560.087,510.397 557,506.5C 556.501,502.848 556.335,499.182 556.5,495.5C 552.839,495.65 551.839,494.15 553.5,491C 554.448,490.517 555.448,490.351 556.5,490.5C 556.325,488.379 556.659,486.379 557.5,484.5 Z"/></g>
<g><path style="opacity:1" fill="#f2f2f0" d="M 496.5,490.5 C 499.518,490.335 502.518,490.502 505.5,491C 507.107,492.049 507.773,493.549 507.5,495.5C 498.581,493.9 495.914,497.066 499.5,505C 502.157,505.175 504.824,505.008 507.5,504.5C 507.66,508.771 505.493,510.771 501,510.5C 492.617,508.436 489.617,503.103 492,494.5C 493.397,492.93 494.897,491.596 496.5,490.5 Z"/></g>
<g><path style="opacity:1" fill="#f5f3ef" d="M 514.5,490.5 C 524.992,488.834 529.826,493.167 529,503.5C 527.878,505.624 526.378,507.457 524.5,509C 512.389,511.556 507.556,506.723 510,494.5C 511.397,492.93 512.897,491.596 514.5,490.5 Z"/></g>
<g><path style="opacity:1" fill="#f0f0eb" d="M 533.5,490.5 C 535.722,490.178 537.556,490.845 539,492.5C 542.598,489.911 546.264,489.911 550,492.5C 551.563,497.718 551.896,503.051 551,508.5C 549.274,509.576 547.441,509.743 545.5,509C 544.533,504.599 544.2,500.099 544.5,495.5C 542.533,495.261 540.699,495.594 539,496.5C 538.828,500.871 538.328,505.204 537.5,509.5C 536.167,510.833 534.833,510.833 533.5,509.5C 532.21,503.112 532.21,496.778 533.5,490.5 Z"/></g>
<g><path style="opacity:1" fill="#f5f5ef" d="M 571.5,490.5 C 573.722,490.178 575.556,490.845 577,492.5C 579.853,489.682 582.353,489.848 584.5,493C 584.355,493.772 584.022,494.439 583.5,495C 580.993,495.093 578.826,495.926 577,497.5C 576.827,501.541 576.327,505.541 575.5,509.5C 574.167,510.833 572.833,510.833 571.5,509.5C 570.21,503.112 570.21,496.778 571.5,490.5 Z"/></g>
<g><path style="opacity:1" fill="#f2f2f0" d="M 590.5,490.5 C 604.213,490.098 607.879,495.931 601.5,508C 589.351,512.672 583.851,508.505 585,495.5C 586.73,493.598 588.563,491.931 590.5,490.5 Z"/></g>
<g><path style="opacity:1" fill="#f3f2ef" d="M 625.5,490.5 C 634.108,489.286 638.441,492.953 638.5,501.5C 634.154,501.334 629.821,501.501 625.5,502C 626.167,503 626.833,504 627.5,505C 630.833,505 634.167,505 637.5,505C 638.791,507.09 638.124,508.424 635.5,509C 623.602,512.295 618.435,507.795 620,495.5C 621.73,493.598 623.563,491.931 625.5,490.5 Z"/></g>
<g><path style="opacity:1" fill="#f2f0ed" d="M 678.5,490.5 C 683.284,489.839 687.618,490.839 691.5,493.5C 692.786,498.811 692.786,504.144 691.5,509.5C 689.602,510.734 687.935,510.401 686.5,508.5C 682.571,511.27 678.904,510.937 675.5,507.5C 674.212,504.966 674.212,502.466 675.5,500C 679.099,498.986 682.765,498.153 686.5,497.5C 685.73,495.728 684.397,494.728 682.5,494.5C 680.49,495.362 678.49,495.862 676.5,496C 675.08,493.426 675.747,491.593 678.5,490.5 Z"/></g>
<g><path style="opacity:1" fill="#eeedeb" d="M 699.5,490.5 C 703.584,490.043 707.417,490.71 711,492.5C 711.483,493.448 711.649,494.448 711.5,495.5C 708.167,495.167 704.833,494.833 701.5,494.5C 701.5,495.5 701.5,496.5 701.5,497.5C 705.465,497.696 708.965,499.03 712,501.5C 712.832,505.994 710.998,508.828 706.5,510C 702.796,510.804 699.296,510.304 696,508.5C 695.51,507.207 695.343,505.873 695.5,504.5C 699.178,505.586 702.845,505.586 706.5,504.5C 703.093,502.762 699.593,501.096 696,499.5C 694.665,495.392 695.832,492.392 699.5,490.5 Z"/></g>
<g><path style="opacity:1" fill="#f1f1ef" d="M 728.5,490.5 C 732.548,490.395 736.548,490.728 740.5,491.5C 740.5,492.833 740.5,494.167 740.5,495.5C 738.116,495.557 735.782,495.223 733.5,494.5C 732,494.453 731,495.119 730.5,496.5C 734.274,497.647 737.774,499.314 741,501.5C 742.041,504.636 741.207,507.136 738.5,509C 734.09,511.044 729.757,510.877 725.5,508.5C 724.417,507.635 724.251,506.635 725,505.5C 728.378,505.132 731.878,505.132 735.5,505.5C 735.5,504.5 735.5,503.5 735.5,502.5C 725.35,502.722 723.016,498.722 728.5,490.5 Z"/></g>
<g><path style="opacity:1" fill="#f6f1ea" d="M 744.5,490.5 C 746.467,490.261 748.301,490.594 750,491.5C 750.333,495.833 750.667,500.167 751,504.5C 752.938,505.86 754.604,505.527 756,503.5C 756.333,499.5 756.667,495.5 757,491.5C 758.667,490.167 760.333,490.167 762,491.5C 762.83,497.528 762.664,503.528 761.5,509.5C 759.487,510.596 757.654,510.263 756,508.5C 752.686,511.16 749.353,511.16 746,508.5C 744.59,502.621 744.09,496.621 744.5,490.5 Z"/></g>
<g><path style="opacity:1" fill="#f0f3f3" d="M 769.5,490.5 C 772.85,490.335 776.183,490.502 779.5,491C 780.931,491.465 782.097,492.299 783,493.5C 783.499,498.823 783.666,504.156 783.5,509.5C 781.234,509.859 779.401,509.192 778,507.5C 773.781,511.534 769.781,511.201 766,506.5C 765.104,503.975 765.604,501.808 767.5,500C 770.688,498.684 774.022,498.184 777.5,498.5C 777.67,497.178 777.337,496.011 776.5,495C 773.271,494.414 770.271,494.914 767.5,496.5C 767.259,494.114 767.925,492.114 769.5,490.5 Z"/></g>
<g><path style="opacity:1" fill="#f0f1ef" d="M 791.5,490.5 C 795.584,490.043 799.417,490.71 803,492.5C 803.538,494.473 802.704,495.473 800.5,495.5C 798.218,494.777 795.884,494.443 793.5,494.5C 793.33,495.822 793.663,496.989 794.5,498C 803.854,497.973 805.854,501.639 800.5,509C 795.125,511.494 790.458,510.661 786.5,506.5C 786.887,505.28 787.72,504.613 789,504.5C 791.77,505.348 794.603,505.681 797.5,505.5C 797.5,504.5 797.5,503.5 797.5,502.5C 793.967,502.495 790.8,501.495 788,499.5C 786.665,495.392 787.832,492.392 791.5,490.5 Z"/></g>
<g><path style="opacity:1" fill="#3a434f" d="M 627.5,494.5 C 630.278,494.022 632.278,495.022 633.5,497.5C 630.894,498.652 628.227,498.818 625.5,498C 626.305,496.887 626.972,495.721 627.5,494.5 Z"/></g>
<g><path style="opacity:1" fill="#3d3e46" d="M 517.5,494.5 C 521.062,494.564 522.729,496.397 522.5,500C 522.26,505.281 520.093,506.448 516,503.5C 515.068,500.177 515.568,497.177 517.5,494.5 Z"/></g>
<g><path style="opacity:1" fill="#3e414d" d="M 593.5,494.5 C 597.062,494.564 598.729,496.397 598.5,500C 598.437,504.745 596.27,506.245 592,504.5C 591.037,500.851 591.537,497.518 593.5,494.5 Z"/></g>
<g><path style="opacity:1" fill="#3d3e46" d="M 659.5,494.5 C 663.062,494.564 664.729,496.397 664.5,500C 664.26,505.281 662.093,506.448 658,503.5C 657.068,500.177 657.568,497.177 659.5,494.5 Z"/></g>
<g><path style="opacity:1" fill="#f3377f" d="M 955.5,499.5 C 974.88,499.179 994.213,499.513 1013.5,500.5C 1014.67,518.824 1014.83,537.158 1014,555.5C 1013.5,556 1013,556.5 1012.5,557C 993.491,557.833 974.491,557.666 955.5,556.5C 954.168,537.47 954.168,518.47 955.5,499.5 Z"/></g>
<g><path style="opacity:1" fill="#fbeffa" d="M 1026.5,499.5 C 1094.5,499.333 1162.5,499.5 1230.5,500C 1231.47,504.737 1231.8,509.57 1231.5,514.5C 1163.17,514.5 1094.83,514.5 1026.5,514.5C 1026.5,509.5 1026.5,504.5 1026.5,499.5 Z"/></g>
<g><path style="opacity:1" fill="#3f3f4c" d="M 681.5,501.5 C 683.288,501.215 684.955,501.548 686.5,502.5C 685.288,504.923 683.288,505.923 680.5,505.5C 680.433,504.041 680.766,502.708 681.5,501.5 Z"/></g>
<g><path style="opacity:1" fill="#4a4046" d="M 772.5,501.5 C 774.167,501.5 775.833,501.5 777.5,501.5C 777.241,505.068 775.241,506.401 771.5,505.5C 771.433,504.041 771.766,502.708 772.5,501.5 Z"/></g>
<g><path style="opacity:1" fill="#fef4f8" d="M 974.5,520.5 C 981.167,520.5 987.833,520.5 994.5,520.5C 994.666,525.179 994.499,529.845 994,534.5C 993.5,535 993,535.5 992.5,536C 986.251,536.809 980.084,536.642 974,535.5C 973.222,530.416 973.389,525.416 974.5,520.5 Z"/></g>
<g><path style="opacity:1" fill="#f44988" d="M 975.5,521.5 C 981.167,521.5 986.833,521.5 992.5,521.5C 992.5,522.833 992.5,524.167 992.5,525.5C 986.5,525.5 980.5,525.5 974.5,525.5C 974.433,524.041 974.766,522.708 975.5,521.5 Z"/></g>
<g><path style="opacity:1" fill="#fbeffa" d="M 1026.5,524.5 C 1043.5,524.333 1060.5,524.5 1077.5,525C 1078.47,529.737 1078.8,534.57 1078.5,539.5C 1061.17,539.5 1043.83,539.5 1026.5,539.5C 1026.5,534.5 1026.5,529.5 1026.5,524.5 Z"/></g>
<g><path style="opacity:1" fill="#f3377f" d="M 974.5,527.5 C 980.5,527.5 986.5,527.5 992.5,527.5C 992.5,529.833 992.5,532.167 992.5,534.5C 986.5,534.5 980.5,534.5 974.5,534.5C 974.5,532.167 974.5,529.833 974.5,527.5 Z"/></g>
<g><path style="opacity:1" fill="#f2f2f0" d="M 498.5,530.5 C 500.833,530.5 503.167,530.5 505.5,530.5C 505.5,531.833 505.5,533.167 505.5,534.5C 502.722,534.022 500.722,535.022 499.5,537.5C 503.459,538.327 507.459,538.827 511.5,539C 512.641,544.75 512.807,550.584 512,556.5C 510.301,557.406 508.467,557.739 506.5,557.5C 506.5,552.833 506.5,548.167 506.5,543.5C 504.167,543.5 501.833,543.5 499.5,543.5C 499.827,548.214 499.493,552.88 498.5,557.5C 497.167,558.833 495.833,558.833 494.5,557.5C 493.507,552.88 493.173,548.214 493.5,543.5C 489.839,543.65 488.839,542.15 490.5,539C 491.448,538.517 492.448,538.351 493.5,538.5C 493.536,534.8 495.203,532.133 498.5,530.5 Z"/></g>
<g><path style="opacity:1" fill="#f6f7f2" d="M 507.5,529.5 C 512.159,529.015 513.492,530.848 511.5,535C 506.728,535.81 505.395,533.977 507.5,529.5 Z"/></g>
<g><path style="opacity:1" fill="#f4f4ef" d="M 517.5,538.5 C 519.722,538.178 521.556,538.845 523,540.5C 532.021,536.441 536.188,539.441 535.5,549.5C 535.333,551.833 535.167,554.167 535,556.5C 533.806,558.525 532.306,558.859 530.5,557.5C 529.672,553.204 529.172,548.871 529,544.5C 527,543.167 525,543.167 523,544.5C 522.828,548.871 522.328,553.204 521.5,557.5C 520.167,558.833 518.833,558.833 517.5,557.5C 516.21,551.112 516.21,544.778 517.5,538.5 Z"/></g>
<g><path style="opacity:1" fill="#f2f0ed" d="M 542.5,538.5 C 547.284,537.839 551.618,538.839 555.5,541.5C 556.786,546.811 556.786,552.144 555.5,557.5C 553.602,558.734 551.935,558.401 550.5,556.5C 546.571,559.27 542.904,558.937 539.5,555.5C 538.212,552.966 538.212,550.466 539.5,548C 543.099,546.986 546.765,546.153 550.5,545.5C 549.73,543.728 548.397,542.728 546.5,542.5C 544.49,543.362 542.49,543.862 540.5,544C 539.08,541.426 539.747,539.593 542.5,538.5 Z"/></g>
<g><path style="opacity:1" fill="#f0f0eb" d="M 561.5,538.5 C 563.722,538.178 565.556,538.845 567,540.5C 570.598,537.911 574.264,537.911 578,540.5C 579.563,545.718 579.896,551.051 579,556.5C 577.274,557.576 575.441,557.743 573.5,557C 572.533,552.599 572.2,548.099 572.5,543.5C 570.533,543.261 568.699,543.594 567,544.5C 566.828,548.871 566.328,553.204 565.5,557.5C 564.167,558.833 562.833,558.833 561.5,557.5C 560.21,551.112 560.21,544.778 561.5,538.5 Z"/></g>
<g><path style="opacity:1" fill="#f1f1ef" d="M 587.5,538.5 C 591.215,538.423 594.881,538.756 598.5,539.5C 598.714,541.144 598.38,542.644 597.5,544C 588.484,541.687 586.151,544.687 590.5,553C 593.157,553.175 595.824,553.008 598.5,552.5C 598.785,556.038 597.118,557.871 593.5,558C 596.987,559.95 597.321,562.283 594.5,565C 591.86,565.839 589.527,565.339 587.5,563.5C 589.167,562.833 590.833,562.167 592.5,561.5C 591.675,560.614 590.675,560.281 589.5,560.5C 589.5,559.5 589.5,558.5 589.5,557.5C 586.737,557.256 584.571,555.923 583,553.5C 582.333,549.833 582.333,546.167 583,542.5C 584.397,540.93 585.897,539.596 587.5,538.5 Z"/></g>
<g><path style="opacity:1" fill="#f4f1eb" d="M 604.5,538.5 C 618.212,537.742 622.546,543.908 617.5,557C 615.559,557.743 613.726,557.576 612,556.5C 603.897,560.071 600.23,557.404 601,548.5C 604.583,546.71 608.416,546.043 612.5,546.5C 612.67,545.178 612.337,544.011 611.5,543C 608.328,542.575 605.328,542.909 602.5,544C 601.08,541.426 601.747,539.593 604.5,538.5 Z"/></g>
<g><path style="opacity:1" fill="#eeedeb" d="M 625.5,538.5 C 629.584,538.043 633.417,538.71 637,540.5C 637.483,541.448 637.649,542.448 637.5,543.5C 634.167,543.167 630.833,542.833 627.5,542.5C 627.5,543.5 627.5,544.5 627.5,545.5C 631.465,545.696 634.965,547.03 638,549.5C 638.832,553.994 636.998,556.828 632.5,558C 628.796,558.804 625.296,558.304 622,556.5C 621.51,555.207 621.343,553.873 621.5,552.5C 625.178,553.586 628.845,553.586 632.5,552.5C 629.093,550.762 625.593,549.096 622,547.5C 620.665,543.392 621.832,540.392 625.5,538.5 Z"/></g>
<g><path style="opacity:1" fill="#3f3f4c" d="M 545.5,549.5 C 547.288,549.215 548.955,549.548 550.5,550.5C 549.288,552.923 547.288,553.923 544.5,553.5C 544.433,552.041 544.766,550.708 545.5,549.5 Z"/></g>
<g><path style="opacity:1" fill="#444855" d="M 606.5,549.5 C 608.5,549.5 610.5,549.5 612.5,549.5C 612.241,553.068 610.241,554.401 606.5,553.5C 606.5,552.167 606.5,550.833 606.5,549.5 Z"/></g>
<g><path style="opacity:1" fill="#eff8f1" d="M 1252.5,568.5 C 1266.17,568.5 1279.83,568.5 1293.5,568.5C 1293.79,572.437 1293.46,576.27 1292.5,580C 1242.5,580.667 1192.5,580.667 1142.5,580C 1141.59,578.301 1141.26,576.467 1141.5,574.5C 1177.17,574.667 1212.83,574.5 1248.5,574C 1251.42,573.338 1252.75,571.505 1252.5,568.5 Z"/></g>
<g><path style="opacity:1" fill="#72c083" d="M 1088.5,574.5 C 1103.17,574.5 1117.83,574.5 1132.5,574.5C 1132.5,586.167 1132.5,597.833 1132.5,609.5C 1132.39,610.117 1132.06,610.617 1131.5,611C 1117.5,611.667 1103.5,611.667 1089.5,611C 1088.51,598.914 1088.18,586.747 1088.5,574.5 Z"/></g>
<g><path style="opacity:1" fill="#bee2c5" d="M 1088.5,574.5 C 1103.32,573.504 1118.32,573.171 1133.5,573.5C 1133.83,585.678 1133.5,597.678 1132.5,609.5C 1132.5,597.833 1132.5,586.167 1132.5,574.5C 1117.83,574.5 1103.17,574.5 1088.5,574.5 Z"/></g>
<g><path style="opacity:1" fill="#dff0e3" d="M 1102.5,584.5 C 1107.83,584.5 1113.17,584.5 1118.5,584.5C 1118.67,588.182 1118.5,591.848 1118,595.5C 1113,596.833 1108,596.833 1103,595.5C 1102.5,591.848 1102.33,588.182 1102.5,584.5 Z"/></g>
<g><path style="opacity:1" fill="#72c082" d="M 1104.5,585.5 C 1108.55,585.176 1112.55,585.509 1116.5,586.5C 1114.5,586.833 1112.5,587.167 1110.5,587.5C 1108.05,587.461 1106.05,586.794 1104.5,585.5 Z"/></g>
<g><path style="opacity:1" fill="#74c185" d="M 1103.5,589.5 C 1107.83,589.5 1112.17,589.5 1116.5,589.5C 1116.5,591.167 1116.5,592.833 1116.5,594.5C 1112.17,594.5 1107.83,594.5 1103.5,594.5C 1103.5,592.833 1103.5,591.167 1103.5,589.5 Z"/></g>
<g><path style="opacity:1" fill="#dadad6" d="M 496.5,603.5 C 498.423,607.029 499.089,611.029 498.5,615.5C 491.658,617.257 489.325,614.924 491.5,608.5C 493.071,607.691 494.738,607.357 496.5,607.5C 496.5,606.167 496.5,604.833 496.5,603.5 Z"/></g>
<g><path style="opacity:1" fill="#e6e1d2" d="M 517.5,608.5 C 515.938,610.372 514.938,612.705 514.5,615.5C 513.786,612.973 513.12,610.473 512.5,608C 513.222,605.259 514.888,604.259 517.5,605C 515.069,606.092 515.069,607.259 517.5,608.5 Z"/></g>
<g><path style="opacity:1" fill="#d8dbd7" d="M 517.5,608.5 C 523.444,606.281 525.944,608.281 525,614.5C 518.844,617.158 516.344,615.158 517.5,608.5 Z"/></g>
<g><path style="opacity:1" fill="#cdd9dc" d="M 532.5,607.5 C 536.329,607.937 539.995,608.104 543.5,608C 544.777,610.466 544.777,612.966 543.5,615.5C 542.041,606.39 540.374,606.39 538.5,615.5C 537.041,606.39 535.374,606.39 533.5,615.5C 532.52,612.914 532.187,610.247 532.5,607.5 Z"/></g>
<g><path style="opacity:1" fill="#d8d0c1" d="M 546.5,607.5 C 552.905,606.406 555.238,609.073 553.5,615.5C 551.167,615.5 548.833,615.5 546.5,615.5C 545.959,611.705 547.625,609.705 551.5,609.5C 550.224,608.355 548.891,608.355 547.5,609.5C 546.702,609.043 546.369,608.376 546.5,607.5 Z"/></g>
<g><path style="opacity:1" fill="#d6d4cd" d="M 568.5,603.5 C 570.927,604.279 570.927,605.446 568.5,607C 569.416,607.374 570.25,607.874 571,608.5C 571.497,610.81 571.663,613.143 571.5,615.5C 569.473,615.662 567.473,615.495 565.5,615C 564.978,614.439 564.645,613.772 564.5,613C 565.817,611.386 567.483,610.219 569.5,609.5C 568.02,608.887 566.687,608.554 565.5,608.5C 567.278,607.274 568.278,605.607 568.5,603.5 Z"/></g>
<g><path style="opacity:1" fill="#a1c5e0" d="M 592.5,603.5 C 592.813,607.042 592.479,610.375 591.5,613.5C 591.714,611.856 591.38,610.356 590.5,609C 589.002,608.415 588.002,608.915 587.5,610.5C 586.596,611.209 586.263,612.209 586.5,613.5C 584.778,609.076 586.445,607.076 591.5,607.5C 591.232,605.901 591.566,604.568 592.5,603.5 Z"/></g>
<g><path style="opacity:1" fill="#d8d0c1" d="M 595.5,607.5 C 601.905,606.406 604.238,609.073 602.5,615.5C 600.167,615.5 597.833,615.5 595.5,615.5C 594.959,611.705 596.625,609.705 600.5,609.5C 599.224,608.355 597.891,608.355 596.5,609.5C 595.702,609.043 595.369,608.376 595.5,607.5 Z"/></g>
<g><path style="opacity:1" fill="#ded8ce" d="M 621.5,607.5 C 623.288,607.215 624.955,607.548 626.5,608.5C 621.093,609.209 621.26,610.543 627,612.5C 627.617,613.449 627.451,614.282 626.5,615C 624.421,615.808 622.421,615.641 620.5,614.5C 621.995,614.522 623.662,614.189 625.5,613.5C 621.191,613.223 619.858,611.223 621.5,607.5 Z"/></g>
<g><path style="opacity:1" fill="#e1ddd4" d="M 638.5,607.5 C 640.5,607.5 642.5,607.5 644.5,607.5C 644.665,610.85 644.498,614.183 644,617.5C 641.861,618.769 639.695,618.769 637.5,617.5C 639.256,617.64 640.922,617.14 642.5,616C 636.454,615.172 635.12,612.339 638.5,607.5 Z"/></g>
<g><path style="opacity:1" fill="#e3dec8" d="M 573.5,607.5 C 579.701,606.365 582.035,608.699 580.5,614.5C 578.955,615.452 577.288,615.785 575.5,615.5C 575.719,616.675 575.386,617.675 574.5,618.5C 573.511,614.893 573.177,611.226 573.5,607.5 Z"/></g>
<g><path style="opacity:1" fill="#e1ccaa" d="M 582.5,607.5 C 583.748,608.334 584.415,609.667 584.5,611.5C 584.167,612.833 583.833,614.167 583.5,615.5C 582.52,612.914 582.187,610.247 582.5,607.5 Z"/></g>
<g><path style="opacity:1" fill="#d7ded8" d="M 655.5,607.5 C 657.199,607.34 658.866,607.506 660.5,608C 659.584,608.374 658.75,608.874 658,609.5C 657.808,611.577 657.308,613.577 656.5,615.5C 655.52,612.914 655.187,610.247 655.5,607.5 Z"/></g>
<g><path style="opacity:1" fill="#45404f" d="M 493.5,608.5 C 495.484,608.484 496.484,609.484 496.5,611.5C 495.167,615.5 493.833,615.5 492.5,611.5C 492.685,610.416 493.018,609.416 493.5,608.5 Z"/></g>
<g><path style="opacity:1" fill="#45404f" d="M 520.5,608.5 C 522.484,608.484 523.484,609.484 523.5,611.5C 522.167,615.5 520.833,615.5 519.5,611.5C 519.685,610.416 520.018,609.416 520.5,608.5 Z"/></g>
<g><path style="opacity:1" fill="#46495c" d="M 576.5,608.5 C 579.513,609.356 580.18,611.189 578.5,614C 577.552,614.483 576.552,614.649 575.5,614.5C 575.325,612.379 575.659,610.379 576.5,608.5 Z"/></g>
<g><path style="opacity:1" fill="#54484c" d="M 591.5,613.5 C 588.67,615.035 587.337,614.035 587.5,610.5C 588.002,608.915 589.002,608.415 590.5,609C 591.38,610.356 591.714,611.856 591.5,613.5 Z"/></g>
<g><path style="opacity:1" fill="#c7c6c0" d="M 629.5,607.5 C 633.938,606.425 635.938,608.092 635.5,612.5C 633.712,612.215 632.045,612.548 630.5,613.5C 632.338,614.189 634.005,614.522 635.5,614.5C 628.746,616.532 626.746,614.199 629.5,607.5 Z"/></g>
<g><path style="opacity:1" fill="#4c4856" d="M 639.5,608.5 C 641.484,608.484 642.484,609.484 642.5,611.5C 641.167,615.5 639.833,615.5 638.5,611.5C 638.685,610.416 639.018,609.416 639.5,608.5 Z"/></g>
<g><path style="opacity:1" fill="#acabad" d="M 501.5,607.5 C 505.938,606.425 507.938,608.092 507.5,612.5C 505.712,612.215 504.045,612.548 502.5,613.5C 504.216,613.997 505.883,614.331 507.5,614.5C 500.293,616.302 498.293,613.969 501.5,607.5 Z"/></g>
<g><path style="opacity:1" fill="#eae8ce" d="M 527.5,607.5 C 528.806,607.879 530.139,608.212 531.5,608.5C 530.675,609.386 529.675,609.719 528.5,609.5C 528.662,611.527 528.495,613.527 528,615.5C 527.503,612.854 527.336,610.187 527.5,607.5 Z"/></g>
<g><path style="opacity:1" fill="#eae8ce" d="M 559.5,607.5 C 560.806,607.879 562.139,608.212 563.5,608.5C 562.675,609.386 561.675,609.719 560.5,609.5C 560.662,611.527 560.495,613.527 560,615.5C 559.503,612.854 559.336,610.187 559.5,607.5 Z"/></g>
<g><path style="opacity:1" fill="#acabad" d="M 609.5,607.5 C 613.938,606.425 615.938,608.092 615.5,612.5C 613.712,612.215 612.045,612.548 610.5,613.5C 612.216,613.997 613.883,614.331 615.5,614.5C 608.293,616.302 606.293,613.969 609.5,607.5 Z"/></g>
<g><path style="opacity:1" fill="#d6dcdb" d="M 661.5,607.5 C 663.467,607.261 665.301,607.594 667,608.5C 667.497,610.81 667.663,613.143 667.5,615.5C 665.208,615.756 663.041,615.423 661,614.5C 660.251,613.365 660.417,612.365 661.5,611.5C 662.931,611.023 664.264,610.357 665.5,609.5C 664.349,608.269 663.183,608.269 662,609.5C 661.536,608.906 661.369,608.239 661.5,607.5 Z"/></g>
<g><path style="opacity:1" fill="#3c4058" d="M 548.5,612.5 C 551.797,612.329 552.131,612.995 549.5,614.5C 548.702,614.043 548.369,613.376 548.5,612.5 Z"/></g>
<g><path style="opacity:1" fill="#454957" d="M 566.5,612.5 C 567.675,612.281 568.675,612.614 569.5,613.5C 567.948,614.798 566.948,614.465 566.5,612.5 Z"/></g>
<g><path style="opacity:1" fill="#3c4058" d="M 597.5,612.5 C 600.797,612.329 601.131,612.995 598.5,614.5C 597.702,614.043 597.369,613.376 597.5,612.5 Z"/></g>
<g><path style="opacity:1" fill="#4b474f" d="M 662.5,612.5 C 663.675,612.281 664.675,612.614 665.5,613.5C 663.948,614.798 662.948,614.465 662.5,612.5 Z"/></g>
<g><path style="opacity:1" fill="#f0f0e0" d="M 592.5,603.5 C 593.483,607.298 593.817,611.298 593.5,615.5C 591.473,615.662 589.473,615.495 587.5,615C 586.944,614.617 586.611,614.117 586.5,613.5C 586.263,612.209 586.596,611.209 587.5,610.5C 587.337,614.035 588.67,615.035 591.5,613.5C 592.479,610.375 592.813,607.042 592.5,603.5 Z"/></g>
<g><path style="opacity:1" fill="#e0dfd5" d="M 646.5,607.5 C 648.344,609.279 649.01,611.612 648.5,614.5C 649.5,614.5 650.5,614.5 651.5,614.5C 651.192,612.076 651.526,609.743 652.5,607.5C 653.48,610.086 653.813,612.753 653.5,615.5C 647.095,616.594 644.762,613.927 646.5,607.5 Z"/></g>
<g><path style="opacity:1" fill="#f3f3f3" d="M 1059.5,640.5 C 1127.17,640.333 1194.83,640.5 1262.5,641C 1263.65,652.424 1263.82,663.924 1263,675.5C 1195.24,676.665 1127.4,676.831 1059.5,676C 1058.18,664.167 1058.18,652.333 1059.5,640.5 Z"/></g>
<g><path style="opacity:1" fill="#f2347e" d="M 495.5,651.5 C 572.501,651.333 649.501,651.5 726.5,652C 728.667,652.833 730.167,654.333 731,656.5C 731.667,669.167 731.667,681.833 731,694.5C 730.167,696.667 728.667,698.167 726.5,699C 649.5,699.667 572.5,699.667 495.5,699C 493.333,698.167 491.833,696.667 491,694.5C 490.333,681.833 490.333,669.167 491,656.5C 492.025,654.313 493.525,652.646 495.5,651.5 Z"/></g>
<g><path style="opacity:1" fill="#fdeeec" d="M 588.5,669.5 C 589.794,671.048 590.461,673.048 590.5,675.5C 590.167,677.5 589.833,679.5 589.5,681.5C 588.509,677.555 588.176,673.555 588.5,669.5 Z"/></g>
<g><path style="opacity:1" fill="#fee0d7" d="M 602.5,669.5 C 604.337,669.639 604.67,670.306 603.5,671.5C 602.702,671.043 602.369,670.376 602.5,669.5 Z"/></g>
<g><path style="opacity:1" fill="#fee0d7" d="M 615.5,669.5 C 617.337,669.639 617.67,670.306 616.5,671.5C 615.702,671.043 615.369,670.376 615.5,669.5 Z"/></g>
<g><path style="opacity:1" fill="#fde8ec" d="M 592.5,672.5 C 594.932,672.636 597.432,672.969 600,673.5C 600.818,676.227 600.652,678.894 599.5,681.5C 598.526,679.257 598.192,676.924 598.5,674.5C 597.178,674.33 596.011,674.663 595,675.5C 594.808,677.577 594.308,679.577 593.5,681.5C 592.516,678.572 592.183,675.572 592.5,672.5 Z"/></g>
<g><path style="opacity:1" fill="#ffe2d7" d="M 602.5,672.5 C 603.765,673.514 604.431,675.014 604.5,677C 604.167,678.5 603.833,680 603.5,681.5C 602.516,678.572 602.183,675.572 602.5,672.5 Z"/></g>
<g><path style="opacity:1" fill="#ffe2d7" d="M 615.5,672.5 C 616.765,673.514 617.431,675.014 617.5,677C 617.167,678.5 616.833,680 616.5,681.5C 615.516,678.572 615.183,675.572 615.5,672.5 Z"/></g>
<g><path style="opacity:1" fill="#fdedeb" d="M 628.5,672.5 C 629.94,673.363 631.274,673.363 632.5,672.5C 632.833,672.833 633.167,673.167 633.5,673.5C 632.675,674.386 631.675,674.719 630.5,674.5C 630.808,676.924 630.474,679.257 629.5,681.5C 628.516,678.572 628.183,675.572 628.5,672.5 Z"/></g>
<g><path style="opacity:1" fill="#feecee" d="M 620.5,672.5 C 622.467,672.261 624.301,672.594 626,673.5C 626.497,676.146 626.664,678.813 626.5,681.5C 624.167,681.5 621.833,681.5 619.5,681.5C 619.5,679.833 619.5,678.167 619.5,676.5C 621.288,676.785 622.955,676.452 624.5,675.5C 623.224,674.355 621.891,674.355 620.5,675.5C 619.438,674.575 619.438,673.575 620.5,672.5 Z"/></g>
<g><path style="opacity:1" fill="#f65d99" d="M 621.5,677.5 C 623.355,677.272 624.188,677.939 624,679.5C 621.366,680.692 620.532,680.026 621.5,677.5 Z"/></g>
<g><path style="opacity:1" fill="#fee9eb" d="M 608.5,672.5 C 610.665,672.116 612.332,672.783 613.5,674.5C 611.997,675.052 610.331,675.052 608.5,674.5C 608.34,676.199 608.506,677.866 609,679.5C 610.43,679.306 611.93,679.306 613.5,679.5C 611.685,681.694 609.518,682.028 607,680.5C 606.109,677.502 606.609,674.836 608.5,672.5 Z"/></g>
<g><path style="opacity:1" fill="#2d3224" d="M -0.5,1080.5 C 222.167,1080.33 444.834,1080.5 667.5,1081C 668.056,1081.38 668.389,1081.88 668.5,1082.5C 445.5,1082.5 222.5,1082.5 -0.5,1082.5C -0.5,1081.83 -0.5,1081.17 -0.5,1080.5 Z"/></g>
<g><path style="opacity:1" fill="#313324" d="M 1915.5,1080.5 C 1915.5,1081.17 1915.5,1081.83 1915.5,1082.5C 1667.5,1082.5 1419.5,1082.5 1171.5,1082.5C 1419.16,1080.5 1667.16,1079.83 1915.5,1080.5 Z"/></g>
<g><path style="opacity:1" fill="#404847" d="M -0.5,1080.5 C -0.5,1080.17 -0.5,1079.83 -0.5,1079.5C 638.167,1079.5 1276.83,1079.5 1915.5,1079.5C 1915.5,1079.83 1915.5,1080.17 1915.5,1080.5C 1667.16,1079.83 1419.16,1080.5 1171.5,1082.5C 1003.83,1082.5 836.167,1082.5 668.5,1082.5C 668.389,1081.88 668.056,1081.38 667.5,1081C 444.834,1080.5 222.167,1080.33 -0.5,1080.5 Z"/></g>
</svg>
